<mxfile host="Electron" agent="Mozilla/5.0 (Macintosh; Intel Mac OS X 10_15_7) AppleWebKit/537.36 (KHTML, like Gecko) draw.io/27.0.5 Chrome/134.0.6998.205 Electron/35.3.0 Safari/537.36" version="27.0.5">
  <diagram name="After" id="Ha8s6_4_4nTsxysomdbX">
    <mxGraphModel dx="594" dy="636" grid="1" gridSize="10" guides="1" tooltips="1" connect="1" arrows="1" fold="1" page="1" pageScale="1" pageWidth="827" pageHeight="1169" math="0" shadow="0">
      <root>
        <mxCell id="0" />
        <mxCell id="1" parent="0" />
        <mxCell id="SDXgaqtE79yuUAepAjOi-53" value="" style="rounded=0;whiteSpace=wrap;html=1;strokeColor=none;labelBackgroundColor=default;endArrow=oval;fontSize=11;startArrow=oval;startFill=1;endFill=1;fillColor=#FFFFFF;" parent="1" vertex="1">
          <mxGeometry x="40" y="40" width="950" height="230" as="geometry" />
        </mxCell>
        <mxCell id="SDXgaqtE79yuUAepAjOi-46" value="&lt;font style=&quot;color: rgb(37, 38, 41);&quot;&gt;Виртуальная сеть&lt;/font&gt;" style="rounded=1;whiteSpace=wrap;html=1;fontFamily=VK Sans Display;strokeColor=none;arcsize=12;fillColor=#E4E8FF;spacing=10;verticalAlign=top;spacingTop=0;spacingLeft=0;spacingRight=0;fontStyle=1;arcSize=12;absoluteArcSize=1;strokeWidth=2;align=center;fontSize=12;fontColor=default;" parent="1" vertex="1">
          <mxGeometry x="570" y="89" width="410" height="171" as="geometry" />
        </mxCell>
        <mxCell id="SDXgaqtE79yuUAepAjOi-47" value="&lt;div style=&quot;white-space: pre;&quot;&gt;&lt;font face=&quot;VK Sans Display&quot; style=&quot;color: rgb(37, 38, 41);&quot;&gt;Клиентская сеть&lt;/font&gt;&lt;/div&gt;" style="rounded=1;whiteSpace=wrap;html=1;fontFamily=VK Sans Display;strokeColor=none;arcsize=12;fillColor=#E4E8FF;spacing=10;verticalAlign=top;spacingTop=0;spacingLeft=0;spacingRight=0;fontStyle=1;arcSize=12;absoluteArcSize=1;strokeWidth=2;" parent="1" vertex="1">
          <mxGeometry x="48.25" y="89" width="410" height="171" as="geometry" />
        </mxCell>
        <mxCell id="SDXgaqtE79yuUAepAjOi-34" value="" style="endArrow=oval;html=1;fontFamily=VK Sans Display;fontColor=#212121;rounded=0;strokeColor=#252629;endFill=1;strokeWidth=2;arcSize=8;startArrow=oval;startFill=1;entryX=0;entryY=0.5;entryDx=0;entryDy=0;exitX=1;exitY=0.5;exitDx=0;exitDy=0;" parent="1" source="SDXgaqtE79yuUAepAjOi-18" target="HESfMR9-z-wT7cdlj92p-1" edge="1">
          <mxGeometry width="50" height="50" relative="1" as="geometry">
            <mxPoint x="801.5" y="171.5" as="sourcePoint" />
            <mxPoint x="873.5" y="171.5" as="targetPoint" />
          </mxGeometry>
        </mxCell>
        <mxCell id="SDXgaqtE79yuUAepAjOi-41" value="" style="endArrow=oval;html=1;fontFamily=VK Sans Display;fontColor=#212121;rounded=0;strokeColor=#252629;endFill=1;strokeWidth=2;arcSize=8;startArrow=oval;startFill=1;entryX=0;entryY=0.5;entryDx=0;entryDy=0;exitX=1;exitY=0.5;exitDx=0;exitDy=0;" parent="1" source="SDXgaqtE79yuUAepAjOi-15" target="SDXgaqtE79yuUAepAjOi-19" edge="1">
          <mxGeometry width="50" height="50" relative="1" as="geometry">
            <mxPoint x="544" y="171.3" as="sourcePoint" />
            <mxPoint x="616" y="171.3" as="targetPoint" />
          </mxGeometry>
        </mxCell>
        <mxCell id="SDXgaqtE79yuUAepAjOi-42" value="" style="endArrow=oval;html=1;fontFamily=VK Sans Display;fontColor=#212121;rounded=0;strokeColor=#252629;endFill=1;strokeWidth=2;arcSize=8;startArrow=oval;startFill=1;exitX=1;exitY=0.5;exitDx=0;exitDy=0;entryX=0;entryY=0.5;entryDx=0;entryDy=0;" parent="1" source="SDXgaqtE79yuUAepAjOi-6" target="SDXgaqtE79yuUAepAjOi-15" edge="1">
          <mxGeometry width="50" height="50" relative="1" as="geometry">
            <mxPoint x="414" y="171.3" as="sourcePoint" />
            <mxPoint x="486" y="171.3" as="targetPoint" />
          </mxGeometry>
        </mxCell>
        <mxCell id="SDXgaqtE79yuUAepAjOi-43" value="" style="endArrow=oval;html=1;fontFamily=VK Sans Display;fontColor=#212121;rounded=0;strokeColor=#252629;endFill=1;strokeWidth=2;arcSize=8;startArrow=oval;startFill=1;entryX=0;entryY=0.5;entryDx=0;entryDy=0;exitX=1;exitY=0.5;exitDx=0;exitDy=0;" parent="1" source="SDXgaqtE79yuUAepAjOi-5" target="SDXgaqtE79yuUAepAjOi-6" edge="1">
          <mxGeometry width="50" height="50" relative="1" as="geometry">
            <mxPoint x="282.25" y="171.3" as="sourcePoint" />
            <mxPoint x="354.25" y="171.3" as="targetPoint" />
          </mxGeometry>
        </mxCell>
        <mxCell id="SDXgaqtE79yuUAepAjOi-44" value="" style="endArrow=oval;html=1;fontFamily=VK Sans Display;fontColor=#212121;rounded=0;strokeColor=#252629;endFill=1;strokeWidth=2;arcSize=8;startArrow=oval;startFill=1;entryX=0;entryY=0.5;entryDx=0;entryDy=0;exitX=1;exitY=0.5;exitDx=0;exitDy=0;" parent="1" source="SDXgaqtE79yuUAepAjOi-7" target="SDXgaqtE79yuUAepAjOi-5" edge="1">
          <mxGeometry width="50" height="50" relative="1" as="geometry">
            <mxPoint x="152.25" y="171.3" as="sourcePoint" />
            <mxPoint x="224.25" y="171.3" as="targetPoint" />
          </mxGeometry>
        </mxCell>
        <mxCell id="SDXgaqtE79yuUAepAjOi-49" value="" style="endArrow=oval;html=1;fontFamily=VK Sans Display;fontColor=#212121;rounded=1;strokeColor=#252629;endFill=1;strokeWidth=2;arcSize=8;startArrow=oval;startFill=1;dashed=1;textOpacity=70;spacing=8;curved=0;exitX=0.5;exitY=0;exitDx=0;exitDy=0;entryX=0.5;entryY=0;entryDx=0;entryDy=0;fontSize=12;" parent="1" source="SDXgaqtE79yuUAepAjOi-6" target="SDXgaqtE79yuUAepAjOi-19" edge="1">
          <mxGeometry width="50" height="50" relative="1" as="geometry">
            <mxPoint x="385" y="140" as="sourcePoint" />
            <mxPoint x="645" y="140" as="targetPoint" />
            <Array as="points">
              <mxPoint x="385" y="70" />
              <mxPoint x="645" y="70" />
            </Array>
          </mxGeometry>
        </mxCell>
        <mxCell id="SDXgaqtE79yuUAepAjOi-50" value="&lt;font style=&quot;font-size: 12px; color: rgb(37, 38, 41);&quot;&gt;Site-to-Site IPsec&lt;/font&gt;" style="edgeLabel;html=1;align=center;verticalAlign=middle;resizable=0;points=[];fontFamily=VK Sans Display;fontColor=#000000;textOpacity=70;" parent="SDXgaqtE79yuUAepAjOi-49" vertex="1" connectable="0">
          <mxGeometry x="-0.0258" y="-1" relative="1" as="geometry">
            <mxPoint x="4" y="-3" as="offset" />
          </mxGeometry>
        </mxCell>
        <mxCell id="SDXgaqtE79yuUAepAjOi-51" value="&lt;font style=&quot;color: rgb(37, 38, 41);&quot;&gt;10.10.2.0/24&lt;/font&gt;" style="text;html=1;strokeColor=none;fillColor=none;align=right;verticalAlign=middle;whiteSpace=wrap;rounded=0;fontColor=#000000;fontFamily=VK Sans Display;" parent="1" vertex="1">
          <mxGeometry x="577" y="50" width="69" height="20" as="geometry" />
        </mxCell>
        <mxCell id="SDXgaqtE79yuUAepAjOi-52" value="&lt;font style=&quot;color: rgb(37, 38, 41);&quot;&gt;192.168.5.0/24&lt;/font&gt;" style="text;html=1;strokeColor=none;fillColor=none;align=left;verticalAlign=middle;whiteSpace=wrap;rounded=0;fontColor=#000000;fontFamily=VK Sans Display;" parent="1" vertex="1">
          <mxGeometry x="387" y="50" width="80" height="20" as="geometry" />
        </mxCell>
        <mxCell id="SDXgaqtE79yuUAepAjOi-40" value="" style="endArrow=oval;html=1;fontFamily=VK Sans Display;fontColor=#212121;rounded=0;strokeColor=#252629;endFill=1;strokeWidth=2;arcSize=8;startArrow=oval;startFill=1;entryX=0;entryY=0.5;entryDx=0;entryDy=0;exitX=1;exitY=0.5;exitDx=0;exitDy=0;" parent="1" source="SDXgaqtE79yuUAepAjOi-19" target="SDXgaqtE79yuUAepAjOi-18" edge="1">
          <mxGeometry width="50" height="50" relative="1" as="geometry">
            <mxPoint x="671.5" y="171.3" as="sourcePoint" />
            <mxPoint x="743.5" y="171.3" as="targetPoint" />
          </mxGeometry>
        </mxCell>
        <mxCell id="HESfMR9-z-wT7cdlj92p-1" value="ВМ&#xa;10.10.2.213" style="shape=image;verticalLabelPosition=bottom;labelBackgroundColor=none;verticalAlign=top;aspect=fixed;imageAspect=0;editableCssRules=.*;image=data:image/svg+xml,PHN2ZyB4bWxucz0iaHR0cDovL3d3dy53My5vcmcvMjAwMC9zdmciIGZpbGw9Im5vbmUiIHZpZXdCb3g9IjIuMDgzMzA5ODg4ODM5NzIxNyAyLjA4MzMyOTkxNjAwMDM2NiAxNS44MzMyODkxNDY0MjMzNCAxNS44MzMzNzAyMDg3NDAyMzQiIGhlaWdodD0iMTUuODMzMzcwMjA4NzQwMjM0IiB3aWR0aD0iMTUuODMzMjg5MTQ2NDIzMzQiPiYjeGE7PHBhdGggZmlsbD0iIzAwNzdGRiIgZD0iTTcuMDMxMjMgMTMuNDYzNUM3LjAzMTIzIDE0LjAxMDEgNi41ODgxOCAxNC40NTMxIDYuMDQxNjUgMTQuNDUzMUM1LjQ5NTExIDE0LjQ1MzEgNS4wNTIwNiAxNC4wMTAxIDUuMDUyMDYgMTMuNDYzNUM1LjA1MjA2IDEyLjkxNyA1LjQ5NTExIDEyLjQ3NCA2LjA0MTY1IDEyLjQ3NEM2LjU4ODE4IDEyLjQ3NCA3LjAzMTIzIDEyLjkxNyA3LjAzMTIzIDEzLjQ2MzVaIi8+JiN4YTs8cGF0aCBmaWxsPSIjMDA3N0ZGIiBkPSJNOS45OTk5OCAxMy40NjM1QzkuOTk5OTggMTQuMDEwMSA5LjU1NjkzIDE0LjQ1MzEgOS4wMTA0IDE0LjQ1MzFDOC40NjM4NiAxNC40NTMxIDguMDIwODEgMTQuMDEwMSA4LjAyMDgxIDEzLjQ2MzVDOC4wMjA4MSAxMi45MTcgOC40NjM4NiAxMi40NzQgOS4wMTA0IDEyLjQ3NEM5LjU1NjkzIDEyLjQ3NCA5Ljk5OTk4IDEyLjkxNyA5Ljk5OTk4IDEzLjQ2MzVaIi8+JiN4YTs8cGF0aCBmaWxsPSIjMDA3N0ZGIiBkPSJNNi4wNDE2NSA3LjUyNjA0QzYuNTg4MTggNy41MjYwNCA3LjAzMTIzIDcuMDgyOTggNy4wMzEyMyA2LjUzNjQ1QzcuMDMxMjMgNS45ODk5MiA2LjU4ODE4IDUuNTQ2ODcgNi4wNDE2NSA1LjU0Njg3QzUuNDk1MTEgNS41NDY4NyA1LjA1MjA2IDUuOTg5OTIgNS4wNTIwNiA2LjUzNjQ1QzUuMDUyMDYgNy4wODI5OCA1LjQ5NTExIDcuNTI2MDQgNi4wNDE2NSA3LjUyNjA0WiIvPiYjeGE7PHBhdGggZmlsbD0iIzAwNzdGRiIgZD0iTTkuMDEwNCA3LjUyNjA0QzkuNTU2OTMgNy41MjYwNCA5Ljk5OTk4IDcuMDgyOTggOS45OTk5OCA2LjUzNjQ1QzkuOTk5OTggNS45ODk5MiA5LjU1NjkzIDUuNTQ2ODcgOS4wMTA0IDUuNTQ2ODdDOC40NjM4NiA1LjU0Njg3IDguMDIwODEgNS45ODk5MiA4LjAyMDgxIDYuNTM2NDVDOC4wMjA4MSA3LjA4Mjk4IDguNDYzODYgNy41MjYwNCA5LjAxMDQgNy41MjYwNFoiLz4mI3hhOzxwYXRoIGZpbGw9IiMwMDc3RkYiIGQ9Ik0yLjA4MzMxIDkuOTk5OTlDMi4wODMzMSA2LjI2ODA0IDIuMDgzMzEgNC40MDIwNyAzLjI0MjY4IDMuMjQyN0M0LjQwMjA1IDIuMDgzMzMgNi4yNjgwMyAyLjA4MzMzIDkuOTk5OTggMi4wODMzM0MxMy43MzE5IDIuMDgzMzMgMTUuNTk3OSAyLjA4MzMzIDE2Ljc1NzMgMy4yNDI3QzE3LjkxNjYgNC40MDIwNyAxNy45MTY2IDYuMjY4MDQgMTcuOTE2NiA5Ljk5OTk5QzE3LjkxNjYgMTMuNzMxOSAxNy45MTY2IDE1LjU5NzkgMTYuNzU3MyAxNi43NTczQzE1LjU5NzkgMTcuOTE2NyAxMy43MzE5IDE3LjkxNjcgOS45OTk5OCAxNy45MTY3QzYuMjY4MDMgMTcuOTE2NyA0LjQwMjA1IDE3LjkxNjcgMy4yNDI2OCAxNi43NTczQzIuMDgzMzEgMTUuNTk3OSAyLjA4MzMxIDEzLjczMTkgMi4wODMzMSA5Ljk5OTk5Wk05Ljk5OTk4IDE2LjQzMjNDOC4wOTIwNCAxNi40MzIzIDYuODEwNDEgMTYuNDI5MSA1Ljg1NDQgMTYuMzAwNkM0Ljk0MTA5IDE2LjE3NzggNC41NTAyMSAxNS45NjU2IDQuMjkyMjkgMTUuNzA3N0M0LjAzNDM4IDE1LjQ0OTggMy44MjIxNiAxNS4wNTg5IDMuNjk5MzcgMTQuMTQ1NkMzLjYwMDg2IDEzLjQxMjggMy41NzYgMTIuNDg4OCAzLjU2OTc2IDExLjIzODFDMy41Njg0IDEwLjk2NDUgMy43OTAyMyAxMC43NDIyIDQuMDYzODQgMTAuNzQyMkgxNS45MzYxQzE2LjIwOTcgMTAuNzQyMiAxNi40MzE2IDEwLjk2NDUgMTYuNDMwMiAxMS4yMzgxQzE2LjQyNCAxMi40ODg4IDE2LjM5OTEgMTMuNDEyOCAxNi4zMDA2IDE0LjE0NTZDMTYuMTc3OCAxNS4wNTg5IDE1Ljk2NTYgMTUuNDQ5OCAxNS43MDc3IDE1LjcwNzdDMTUuNDQ5NyAxNS45NjU2IDE1LjA1ODkgMTYuMTc3OCAxNC4xNDU2IDE2LjMwMDZDMTMuMTg5NSAxNi40MjkxIDExLjkwNzkgMTYuNDMyMyA5Ljk5OTk4IDE2LjQzMjNaTTE2LjQzMDIgOC43NjE4NUMxNi40MzE2IDkuMDM1NDYgMTYuMjA5NyA5LjI1NzgxIDE1LjkzNjEgOS4yNTc4MUg0LjA2Mzg0QzMuNzkwMjMgOS4yNTc4MSAzLjU2ODQgOS4wMzU0NiAzLjU2OTc2IDguNzYxODVDMy41NzYgNy41MTExNyAzLjYwMDg2IDYuNTg3MTUgMy42OTkzNyA1Ljg1NDQyQzMuODIyMTYgNC45NDExMSA0LjAzNDM4IDQuNTUwMjMgNC4yOTIyOSA0LjI5MjMxQzQuNTUwMjEgNC4wMzQzOSA0Ljk0MTA5IDMuODIyMTggNS44NTQ0IDMuNjk5MzlDNi44MTA0MSAzLjU3MDg2IDguMDkyMDQgMy41Njc3IDkuOTk5OTggMy41Njc3QzExLjkwNzkgMy41Njc3IDEzLjE4OTUgMy41NzA4NiAxNC4xNDU2IDMuNjk5MzlDMTUuMDU4OSAzLjgyMjE4IDE1LjQ0OTcgNC4wMzQzOSAxNS43MDc3IDQuMjkyMzFDMTUuOTY1NiA0LjU1MDIzIDE2LjE3NzggNC45NDExMSAxNi4zMDA2IDUuODU0NDJDMTYuMzk5MSA2LjU4NzE1IDE2LjQyNCA3LjUxMTE3IDE2LjQzMDIgOC43NjE4NVoiIGNsaXAtcnVsZT0iZXZlbm9kZCIgZmlsbC1ydWxlPSJldmVub2RkIi8+JiN4YTs8L3N2Zz4=;fontFamily=VK Sans Display;fontColor=#252629;" parent="1" vertex="1">
          <mxGeometry x="880" y="146.5" width="50" height="50" as="geometry" />
        </mxCell>
        <mxCell id="SDXgaqtE79yuUAepAjOi-7" value="Сервер&#xa;192.168.5.9" style="shape=image;verticalLabelPosition=bottom;labelBackgroundColor=none;verticalAlign=top;aspect=fixed;imageAspect=0;editableCssRules=.*;image=data:image/svg+xml,PHN2ZyB4bWxucz0iaHR0cDovL3d3dy53My5vcmcvMjAwMC9zdmciIGZpbGw9Im5vbmUiIHZpZXdCb3g9IjAgMCAxNiAxNiIgaGVpZ2h0PSIxNiIgd2lkdGg9IjE2Ij4mI3hhOzxwYXRoIGZpbGw9IiMwMDc3RkYiIGQ9Ik0zLjc1IDExLjVDNC4xNjQyMSAxMS41IDQuNSAxMS44MzU4IDQuNSAxMi4yNUM0LjUgMTIuNjY0MiA0LjE2NDIxIDEzIDMuNzUgMTNDMy4zMzU3OSAxMyAzIDEyLjY2NDIgMyAxMi4yNUMzIDExLjgzNTggMy4zMzU3OSAxMS41IDMuNzUgMTEuNVoiLz4mI3hhOzxwYXRoIGZpbGw9IiMwMDc3RkYiIGQ9Ik0xMi4zMjcxIDExLjUwMzlDMTIuNzA1MSAxMS41NDI1IDEzIDExLjg2MTggMTMgMTIuMjVDMTMgMTIuNjM4MiAxMi43MDUxIDEyLjk1NzUgMTIuMzI3MSAxMi45OTYxTDEyLjI1IDEzSDYuNzVMNi42NzI4NSAxMi45OTYxQzYuMjk0ODggMTIuOTU3NSA2IDEyLjYzODIgNiAxMi4yNUM2IDExLjg2MTggNi4yOTQ4OCAxMS41NDI1IDYuNjcyODUgMTEuNTAzOUw2Ljc1IDExLjVIMTIuMjVMMTIuMzI3MSAxMS41MDM5WiIvPiYjeGE7PHBhdGggZmlsbD0iIzAwNzdGRiIgZD0iTTEzLjUwNTkgOC41MzIyM0MxNC44ODQxIDguNTM1NTUgMTUuOTk5OSA5LjY1Mzk4IDE2IDExLjAzMjJWMTMuNUwxNS45ODczIDEzLjc1NTlDMTUuODY3NyAxNC45MzIzIDE0LjkzMjMgMTUuODY3NyAxMy43NTU5IDE1Ljk4NzNMMTMuNSAxNkgyLjUwNjg0TDIuMjUgMTUuOTg3M0MxLjA3MTYzIDE1Ljg2NzMgMC4xMzU1NCAxNC45Mjg3IDAuMDE4NTU0NyAxMy43NUwwLjAwNjgzNTk0IDEzLjQ5MzJMMC4wMTI2OTUzIDExQzAuMDE2MjM5NCA5LjYxOTU0IDEuMTM4MTMgOC41MDI2OSAyLjUxODU1IDguNTA1ODZMMTMuNTA1OSA4LjUzMjIzWk0yLjUxNTYyIDEwLjAwNTlDMS45NjM0IDEwLjAwNDUgMS41MTQxMiAxMC40NTE3IDEuNTEyNyAxMS4wMDM5TDEuNTA2ODQgMTMuNDk3MUMxLjUwNTQyIDE0LjA1MDQgMS45NTM1NSAxNC41IDIuNTA2ODQgMTQuNUgxMy41QzE0LjA1MjMgMTQuNSAxNC41IDE0LjA1MjMgMTQuNSAxMy41VjExLjAzMjJDMTQuNDk5OSAxMC41MTU1IDE0LjEwNzcgMTAuMDkwNCAxMy42MDQ1IDEwLjAzODFMMTMuNTAyIDEwLjAzMjJMMi41MTU2MiAxMC4wMDU5WiIgY2xpcC1ydWxlPSJldmVub2RkIiBmaWxsLXJ1bGU9ImV2ZW5vZGQiLz4mI3hhOzxwYXRoIGZpbGw9IiMwMDc3RkYiIGQ9Ik0xMy43NTU5IDAuMDEyNjk1M0MxNS4wMTY0IDAuMTQwODI0IDE2IDEuMjA1NjYgMTYgMi41VjQuNUwxNS45ODczIDQuNzU1ODZDMTUuODY3NyA1LjkzMjI4IDE0LjkzMjMgNi44Njc3MyAxMy43NTU5IDYuOTg3M0wxMy41IDdIMi41TDIuMjQ0MTQgNi45ODczQzEuMDY3NzIgNi44Njc3MyAwLjEzMjI3NCA1LjkzMjI4IDAuMDEyNjk1MyA0Ljc1NTg2TDAgNC41VjIuNUMzLjAxOTg4ZS0wOCAxLjIwNTY2IDAuOTgzNjA4IDAuMTQwODI0IDIuMjQ0MTQgMC4wMTI2OTUzTDIuNSAwSDEzLjVMMTMuNzU1OSAwLjAxMjY5NTNaTTIuNSAxLjVDMS45NDc3MiAxLjUgMS41IDEuOTQ3NzIgMS41IDIuNVY0LjVDMS41IDUuMDUyMjggMS45NDc3MiA1LjUgMi41IDUuNUgxMy41QzE0LjA1MjMgNS41IDE0LjUgNS4wNTIyOCAxNC41IDQuNVYyLjVDMTQuNSAxLjk4MjMyIDE0LjEwNjcgMS41NTYyMSAxMy42MDI1IDEuNTA0ODhMMTMuNSAxLjVIMi41WiIgY2xpcC1ydWxlPSJldmVub2RkIiBmaWxsLXJ1bGU9ImV2ZW5vZGQiLz4mI3hhOzwvc3ZnPg==;fontFamily=VK Sans Display;fontColor=#252629;" parent="1" vertex="1">
          <mxGeometry x="98.25" y="146.5" width="50" height="50" as="geometry" />
        </mxCell>
        <mxCell id="SDXgaqtE79yuUAepAjOi-5" value="Подсеть&#xa;192.168.5.0/24" style="shape=image;verticalLabelPosition=bottom;labelBackgroundColor=none;verticalAlign=top;aspect=fixed;imageAspect=0;editableCssRules=.*;image=data:image/svg+xml,PHN2ZyB4bWxucz0iaHR0cDovL3d3dy53My5vcmcvMjAwMC9zdmciIGZpbGw9Im5vbmUiIHZpZXdCb3g9IjEgMSAxOCAxOCIgaGVpZ2h0PSIxOCIgd2lkdGg9IjE4Ij4mI3hhOzxwYXRoIGZpbGw9IiMwMDc3RkYiIGQ9Ik0xMCAxQzguMDA5MjggMSA2LjE2OTUyIDEuNjQ2MzMgNC42NzkxMSAyLjc0MDU5QzUuMTcwNyAyLjk1MDkyIDUuNTk0NzMgMy4yODg3OCA1LjkwOTYxIDMuNzEyNTdDNi4wNjg4IDMuNjA4NzkgNi4yMzIxNyAzLjUxMDkgNi4zOTk0MiAzLjQxOTJDNi41NDM3NiA0LjMzNjM5IDYuNzg5ODUgNS4yMTk3NiA3LjEyNTc2IDYuMDU3MzlDNi45MDQ3IDYuMDIxMDMgNi42ODU3IDUuOTc5NyA2LjQ2ODkgNS45MzM1NEM2LjM5MzA2IDYuNDU3NDggNi4xODE4MSA2LjkzNzYgNS44NzE3OSA3LjMzNzI1QzYuNTM2MDQgNy40OTE2NyA3LjIxODkzIDcuNjA0NjQgNy45MTY2NSA3LjY3Mjk3QzguNjY3NDEgOC45NTczOSA5LjY0NTI4IDEwLjA5MjggMTAuNzk1MiAxMS4wMjQyQzkuOTY4MDkgMTEuNTY1MyA5LjA3MTE5IDExLjk5NzQgOC4xMjg0MyAxMi4zMDY1QzYuODk2NzggMTEuMTAxNyA1LjgzNzQ0IDkuNjgzNTEgNS4wMDk5NSA4LjA5Mjg3QzQuNTc1NjIgOC4zNDYzNSA0LjA3MTg1IDguNDkzODIgMy41MzQxMSA4LjQ5OTgxQzQuMzEyNTcgMTAuMDYxOCA1LjI5NTcxIDExLjQ3OTEgNi40Mzg4OCAxMi43MTlDNS4zNTQ4NCAxMi44OTU5IDQuMjMyMzcgMTIuOTE1MiAzLjEwMzAxIDEyLjc1ODZMMy4wODI4NyAxMi45MDM5QzIuNzA3NDcgMTIuMDEwNyAyLjUgMTEuMDI5NiAyLjUgMTBDMi41IDkuNDQ1NTQgMi41NjAxNyA4LjkwNTEzIDIuNjc0MzMgOC4zODQ5NEMyLjE1NTQgOC4yMzY3IDEuNjkzOTQgNy45NTIyMyAxLjMzMTEzIDcuNTcyNjhDMS4xMTUzNiA4LjM0NDg3IDEgOS4xNTg5NiAxIDEwQzEgMTQuOTcwNiA1LjAyOTQ0IDE5IDEwIDE5QzEwLjcxMjYgMTkgMTEuNDA1OSAxOC45MTcyIDEyLjA3MDcgMTguNzYwNkMxMS43NzU2IDE4LjM1NDEgMTEuNTggMTcuODcwNiAxMS41MTk3IDE3LjM0NTlDMTEuMDI5IDE3LjQ0NjkgMTAuNTIwNyAxNy41IDEwIDE3LjVDNy40NzYxNSAxNy41IDUuMjQzNDYgMTYuMjUzNCAzLjg4NDEzIDE0LjM0MjJDNS4xOTY2NSAxNC40MjA4IDYuNDkxMDUgMTQuMjkzNCA3LjcyODIgMTMuOTgyN0M4Ljg4NTYgMTUuMDA3MiAxMC4xNjYgMTUuODcwMSAxMS41MzQyIDE2LjU0NTVDMTEuNjEyNSAxNi4wMzA2IDExLjgyMTYgMTUuNTU4NiAxMi4xMjY3IDE1LjE2NDdDMTEuMTY5NyAxNC42ODYgMTAuMjU4OCAxNC4xMDU2IDkuNDA5MjkgMTMuNDM0MUMxMC4zNjI3IDEzLjA0ODEgMTEuMjY2NSAxMi41NDg0IDEyLjA5OTkgMTEuOTQ3MUMxMy40NDQgMTIuNzcyMyAxNC45NTk2IDEzLjM0NTMgMTYuNTgwOSAxMy42MDA1QzE2LjQyMjMgMTMuODg5NyAxNi4yNDUyIDE0LjE2NzMgMTYuMDUxMyAxNC40MzE3QzE2LjQ5MDIgMTQuNjk3NCAxNi44NTU2IDE1LjA3MjUgMTcuMTA5NiAxNS41MTkxQzE4LjI5NDQgMTMuOTk1MSAxOSAxMi4wNzk5IDE5IDEwQzE5IDguODc1NzYgMTguNzkzOSA3Ljc5OTY2IDE4LjQxNzMgNi44MDc0NEMxOC4wMzI2IDcuMTI3NDUgMTcuNTY2NyA3LjM1MzA3IDE3LjA1NDkgNy40NDg3OEMxNy4zNDMgOC4yNDUxNSAxNy41IDkuMTA0MjQgMTcuNSAxMEMxNy41IDEwLjc1NDUgMTcuMzg4NiAxMS40ODMxIDE3LjE4MTMgMTIuMTdDMTUuODAyMSAxMi4wMDE0IDE0LjUwMzYgMTEuNTcxNSAxMy4zMzY3IDEwLjkzMTNDMTQuMzkyMSA5Ljk0NzQ5IDE1LjI4ODYgOC43NzcxNiAxNS45NjkyIDcuNDUzMThDMTQuOTQ0MyA3LjI3MDIgMTQuMDk5OCA2LjU2NjgzIDEzLjcxODUgNS42MjYxNUMxMi4zOTk3IDYuMDI5ODcgMTAuOTgwMyA2LjI1MDAyIDkuNDk5OTUgNi4yNTAwMkM5LjI4MDc0IDYuMjUwMDIgOS4wNjI4NyA2LjI0NTIgOC44NDY0NSA2LjIzNTY2QzguMzI4NjUgNS4xODIxOSA3Ljk3ODIzIDQuMDMxNjUgNy44Mjk5MSAyLjgxODc1QzguNTE2ODcgMi42MTE0MyA5LjI0NTQyIDIuNSAxMCAyLjVDMTEuMzM4NiAyLjUgMTIuNTk1MyAyLjg1MDY5IDEzLjY4MzIgMy40NjUyMUMxMy44NjA3IDIuOTgyMzIgMTQuMTU4OCAyLjU1NzcxIDE0LjU0MSAyLjIyNzg5QzEzLjIwOCAxLjQ0NzM4IDExLjY1NjIgMSAxMCAxWk0xNC41NDYzIDYuOTM1ODFDMTMuMDUgNy40Mzc2NCAxMS40MzUxIDcuNzIyMzEgOS43NTEwOCA3Ljc0ODFDMTAuMzg4NCA4LjYzODkzIDExLjE1ODUgOS40MjgzOSAxMi4wMzIzIDEwLjA4NzZDMTMuMDM4OCA5LjIxMDQyIDEzLjg5NjMgOC4xNDg2IDE0LjU0NjMgNi45MzU4MVoiIGNsaXAtcnVsZT0iZXZlbm9kZCIgZmlsbC1ydWxlPSJldmVub2RkIi8+JiN4YTs8cGF0aCBmaWxsPSIjMDA3N0ZGIiBkPSJNMi4wMzIyNyA1LjgxMDk2QzIuMDExMTIgNS43MTA2MyAyIDUuNjA2NjIgMiA1LjVDMiA1LjI1NDc3IDIuMDU4ODUgNS4wMjMyOSAyLjE2MzE5IDQuODE4OUMyLjQxMTM0IDQuMzMyODMgMi45MTY4IDQgMy41IDRDNC4wMTQ4MiA0IDQuNDY5MDYgNC4yNTkzNSA0LjczOTIgNC42NTQ1M0M0LjkwMzc2IDQuODk1MjYgNSA1LjE4NjM5IDUgNS41QzUgNS41MTIyMyA0Ljk5OTg1IDUuNTI0NDMgNC45OTk1NiA1LjUzNjU5QzQuOTgwMTMgNi4zNDgxMSA0LjMxNjIgNyAzLjUgN0MyLjc3ODE5IDcgMi4xNzU0NiA2LjQ5MDE2IDIuMDMyMjcgNS44MTA5NloiLz4mI3hhOzxwYXRoIGZpbGw9IiMwMDc3RkYiIGQ9Ik0xNS45NzU4IDE2LjcyOTlDMTUuOTkxNyAxNi44MTc1IDE2IDE2LjkwNzggMTYgMTdDMTYgMTcuODI4NCAxNS4zMjg0IDE4LjUgMTQuNSAxOC41QzE0LjE4MTcgMTguNSAxMy44ODY2IDE4LjQwMDkgMTMuNjQzOSAxOC4yMzE4QzEzLjI1NDcgMTcuOTYwOCAxMyAxNy41MTAyIDEzIDE3QzEzIDE2LjUxMjIgMTMuMjMyOSAxNi4wNzg3IDEzLjU5MzYgMTUuODA0OEMxMy44NDU0IDE1LjYxMzUgMTQuMTU5NCAxNS41IDE0LjUgMTUuNUMxNC42NzY4IDE1LjUgMTQuODQ2NCAxNS41MzA2IDE1LjAwMzkgMTUuNTg2OEMxNS41MDIzIDE1Ljc2NDUgMTUuODc5MSAxNi4xOTg0IDE1Ljk3NTggMTYuNzI5OVoiLz4mI3hhOzxwYXRoIGZpbGw9IiMwMDc3RkYiIGQ9Ik0xNS44NDA2IDMuMTUyMzRDMTUuMzY3NiAzLjM4NDIgMTUuMDM0NiAzLjg1Nzc1IDE1LjAwMjUgNC40MTIwMUMxNS4wMDA5IDQuNDQxMTMgMTUgNC40NzA0NiAxNSA0LjVDMTUgNC43MTY4IDE1LjA0NiA0LjkyMjg2IDE1LjEyODggNS4xMDg5NkMxNS4zNjIzIDUuNjMzOTQgMTUuODg4NCA2IDE2LjUgNkMxNy4wMDMyIDYgMTcuNDQ4NSA1Ljc1MjI1IDE3LjcyMDYgNS4zNzIxQzE3Ljg5NjUgNS4xMjYzNSAxOCA0LjgyNTI3IDE4IDQuNUMxOCAzLjY3MTU3IDE3LjMyODQgMyAxNi41IDNDMTYuMjYzNCAzIDE2LjAzOTYgMy4wNTQ3OCAxNS44NDA2IDMuMTUyMzRaIi8+JiN4YTs8L3N2Zz4=;fontFamily=VK Sans Display;fontColor=#252629;" parent="1" vertex="1">
          <mxGeometry x="228.25" y="146.5" width="50" height="50" as="geometry" />
        </mxCell>
        <mxCell id="SDXgaqtE79yuUAepAjOi-6" value="MikroTik&#xa;62.176.10.113" style="shape=image;verticalLabelPosition=bottom;labelBackgroundColor=none;verticalAlign=top;aspect=fixed;imageAspect=0;editableCssRules=.*;image=data:image/svg+xml,PHN2ZyB4bWxucz0iaHR0cDovL3d3dy53My5vcmcvMjAwMC9zdmciIGZpbGw9Im5vbmUiIHZpZXdCb3g9IjEuMjUgMS4yNSAxNy41IDE3LjUiIGhlaWdodD0iMTcuNSIgd2lkdGg9IjE3LjUiPiYjeGE7PHBhdGggc3Ryb2tlLWxpbmVqb2luPSJyb3VuZCIgc3Ryb2tlLWxpbmVjYXA9InJvdW5kIiBzdHJva2Utd2lkdGg9IjEuNSIgc3Ryb2tlPSIjMDA3N0ZGIiBkPSJNMi4wMDM5MSAxOEg3LjAwMzkxTTIuMDAzOTEgMThMMi4wMDM5MSAxM00yLjAwMzkxIDE4TDcuMDAzOTEgMTNNMTMgMTNWMThNMTMgMTNMMTggMTNNMTMgMTNMMTggMThNMTggMkwxMyAyTTE4IDJWN00xOCAyTDEzIDdNNyA3TDIgN003IDdMNyAyTTcgN0wyIDIiLz4mI3hhOzwvc3ZnPg==;fontFamily=VK Sans Display;fontColor=#252629;" parent="1" vertex="1">
          <mxGeometry x="360" y="146.5" width="50" height="50" as="geometry" />
        </mxCell>
        <mxCell id="SDXgaqtE79yuUAepAjOi-15" value="Интернет" style="shape=image;verticalLabelPosition=bottom;labelBackgroundColor=none;verticalAlign=top;aspect=fixed;imageAspect=0;editableCssRules=.*;image=data:image/svg+xml,PHN2ZyB4bWxucz0iaHR0cDovL3d3dy53My5vcmcvMjAwMC9zdmciIGZpbGw9Im5vbmUiIHZpZXdCb3g9IjEgMSAxOCAxOCIgaGVpZ2h0PSIxOCIgd2lkdGg9IjE4Ij4mI3hhOzxwYXRoIGZpbGw9IiMwMDc3RkYiIGQ9Ik0xMCAxQzguMDA5MjggMSA2LjE2OTUyIDEuNjQ2MzMgNC42NzkxMSAyLjc0MDU5QzUuMTcwNyAyLjk1MDkyIDUuNTk0NzMgMy4yODg3OCA1LjkwOTYxIDMuNzEyNTdDNi4wNjg4IDMuNjA4NzkgNi4yMzIxNyAzLjUxMDkgNi4zOTk0MiAzLjQxOTJDNi41NDM3NiA0LjMzNjM5IDYuNzg5ODUgNS4yMTk3NiA3LjEyNTc2IDYuMDU3MzlDNi45MDQ3IDYuMDIxMDMgNi42ODU3IDUuOTc5NyA2LjQ2ODkgNS45MzM1NEM2LjM5MzA2IDYuNDU3NDggNi4xODE4MSA2LjkzNzYgNS44NzE3OSA3LjMzNzI1QzYuNTM2MDQgNy40OTE2NyA3LjIxODkzIDcuNjA0NjQgNy45MTY2NSA3LjY3Mjk3QzguNjY3NDEgOC45NTczOSA5LjY0NTI4IDEwLjA5MjggMTAuNzk1MiAxMS4wMjQyQzkuOTY4MDkgMTEuNTY1MyA5LjA3MTE5IDExLjk5NzQgOC4xMjg0MyAxMi4zMDY1QzYuODk2NzggMTEuMTAxNyA1LjgzNzQ0IDkuNjgzNTEgNS4wMDk5NSA4LjA5Mjg3QzQuNTc1NjIgOC4zNDYzNSA0LjA3MTg1IDguNDkzODIgMy41MzQxMSA4LjQ5OTgxQzQuMzEyNTcgMTAuMDYxOCA1LjI5NTcxIDExLjQ3OTEgNi40Mzg4OCAxMi43MTlDNS4zNTQ4NCAxMi44OTU5IDQuMjMyMzcgMTIuOTE1MiAzLjEwMzAxIDEyLjc1ODZMMy4wODI4NyAxMi45MDM5QzIuNzA3NDcgMTIuMDEwNyAyLjUgMTEuMDI5NiAyLjUgMTBDMi41IDkuNDQ1NTQgMi41NjAxNyA4LjkwNTEzIDIuNjc0MzMgOC4zODQ5NEMyLjE1NTQgOC4yMzY3IDEuNjkzOTQgNy45NTIyMyAxLjMzMTEzIDcuNTcyNjhDMS4xMTUzNiA4LjM0NDg3IDEgOS4xNTg5NiAxIDEwQzEgMTQuOTcwNiA1LjAyOTQ0IDE5IDEwIDE5QzEwLjcxMjYgMTkgMTEuNDA1OSAxOC45MTcyIDEyLjA3MDcgMTguNzYwNkMxMS43NzU2IDE4LjM1NDEgMTEuNTggMTcuODcwNiAxMS41MTk3IDE3LjM0NTlDMTEuMDI5IDE3LjQ0NjkgMTAuNTIwNyAxNy41IDEwIDE3LjVDNy40NzYxNSAxNy41IDUuMjQzNDYgMTYuMjUzNCAzLjg4NDEzIDE0LjM0MjJDNS4xOTY2NSAxNC40MjA4IDYuNDkxMDUgMTQuMjkzNCA3LjcyODIgMTMuOTgyN0M4Ljg4NTYgMTUuMDA3MiAxMC4xNjYgMTUuODcwMSAxMS41MzQyIDE2LjU0NTVDMTEuNjEyNSAxNi4wMzA2IDExLjgyMTYgMTUuNTU4NiAxMi4xMjY3IDE1LjE2NDdDMTEuMTY5NyAxNC42ODYgMTAuMjU4OCAxNC4xMDU2IDkuNDA5MjkgMTMuNDM0MUMxMC4zNjI3IDEzLjA0ODEgMTEuMjY2NSAxMi41NDg0IDEyLjA5OTkgMTEuOTQ3MUMxMy40NDQgMTIuNzcyMyAxNC45NTk2IDEzLjM0NTMgMTYuNTgwOSAxMy42MDA1QzE2LjQyMjMgMTMuODg5NyAxNi4yNDUyIDE0LjE2NzMgMTYuMDUxMyAxNC40MzE3QzE2LjQ5MDIgMTQuNjk3NCAxNi44NTU2IDE1LjA3MjUgMTcuMTA5NiAxNS41MTkxQzE4LjI5NDQgMTMuOTk1MSAxOSAxMi4wNzk5IDE5IDEwQzE5IDguODc1NzYgMTguNzkzOSA3Ljc5OTY2IDE4LjQxNzMgNi44MDc0NEMxOC4wMzI2IDcuMTI3NDUgMTcuNTY2NyA3LjM1MzA3IDE3LjA1NDkgNy40NDg3OEMxNy4zNDMgOC4yNDUxNSAxNy41IDkuMTA0MjQgMTcuNSAxMEMxNy41IDEwLjc1NDUgMTcuMzg4NiAxMS40ODMxIDE3LjE4MTMgMTIuMTdDMTUuODAyMSAxMi4wMDE0IDE0LjUwMzYgMTEuNTcxNSAxMy4zMzY3IDEwLjkzMTNDMTQuMzkyMSA5Ljk0NzQ5IDE1LjI4ODYgOC43NzcxNiAxNS45NjkyIDcuNDUzMThDMTQuOTQ0MyA3LjI3MDIgMTQuMDk5OCA2LjU2NjgzIDEzLjcxODUgNS42MjYxNUMxMi4zOTk3IDYuMDI5ODcgMTAuOTgwMyA2LjI1MDAyIDkuNDk5OTUgNi4yNTAwMkM5LjI4MDc0IDYuMjUwMDIgOS4wNjI4NyA2LjI0NTIgOC44NDY0NSA2LjIzNTY2QzguMzI4NjUgNS4xODIxOSA3Ljk3ODIzIDQuMDMxNjUgNy44Mjk5MSAyLjgxODc1QzguNTE2ODcgMi42MTE0MyA5LjI0NTQyIDIuNSAxMCAyLjVDMTEuMzM4NiAyLjUgMTIuNTk1MyAyLjg1MDY5IDEzLjY4MzIgMy40NjUyMUMxMy44NjA3IDIuOTgyMzIgMTQuMTU4OCAyLjU1NzcxIDE0LjU0MSAyLjIyNzg5QzEzLjIwOCAxLjQ0NzM4IDExLjY1NjIgMSAxMCAxWk0xNC41NDYzIDYuOTM1ODFDMTMuMDUgNy40Mzc2NCAxMS40MzUxIDcuNzIyMzEgOS43NTEwOCA3Ljc0ODFDMTAuMzg4NCA4LjYzODkzIDExLjE1ODUgOS40MjgzOSAxMi4wMzIzIDEwLjA4NzZDMTMuMDM4OCA5LjIxMDQyIDEzLjg5NjMgOC4xNDg2IDE0LjU0NjMgNi45MzU4MVoiIGNsaXAtcnVsZT0iZXZlbm9kZCIgZmlsbC1ydWxlPSJldmVub2RkIi8+JiN4YTs8cGF0aCBmaWxsPSIjMDA3N0ZGIiBkPSJNMi4wMzIyNyA1LjgxMDk2QzIuMDExMTIgNS43MTA2MyAyIDUuNjA2NjIgMiA1LjVDMiA1LjI1NDc3IDIuMDU4ODUgNS4wMjMyOSAyLjE2MzE5IDQuODE4OUMyLjQxMTM0IDQuMzMyODMgMi45MTY4IDQgMy41IDRDNC4wMTQ4MiA0IDQuNDY5MDYgNC4yNTkzNSA0LjczOTIgNC42NTQ1M0M0LjkwMzc2IDQuODk1MjYgNSA1LjE4NjM5IDUgNS41QzUgNS41MTIyMyA0Ljk5OTg1IDUuNTI0NDMgNC45OTk1NiA1LjUzNjU5QzQuOTgwMTMgNi4zNDgxMSA0LjMxNjIgNyAzLjUgN0MyLjc3ODE5IDcgMi4xNzU0NiA2LjQ5MDE2IDIuMDMyMjcgNS44MTA5NloiLz4mI3hhOzxwYXRoIGZpbGw9IiMwMDc3RkYiIGQ9Ik0xNS45NzU4IDE2LjcyOTlDMTUuOTkxNyAxNi44MTc1IDE2IDE2LjkwNzggMTYgMTdDMTYgMTcuODI4NCAxNS4zMjg0IDE4LjUgMTQuNSAxOC41QzE0LjE4MTcgMTguNSAxMy44ODY2IDE4LjQwMDkgMTMuNjQzOSAxOC4yMzE4QzEzLjI1NDcgMTcuOTYwOCAxMyAxNy41MTAyIDEzIDE3QzEzIDE2LjUxMjIgMTMuMjMyOSAxNi4wNzg3IDEzLjU5MzYgMTUuODA0OEMxMy44NDU0IDE1LjYxMzUgMTQuMTU5NCAxNS41IDE0LjUgMTUuNUMxNC42NzY4IDE1LjUgMTQuODQ2NCAxNS41MzA2IDE1LjAwMzkgMTUuNTg2OEMxNS41MDIzIDE1Ljc2NDUgMTUuODc5MSAxNi4xOTg0IDE1Ljk3NTggMTYuNzI5OVoiLz4mI3hhOzxwYXRoIGZpbGw9IiMwMDc3RkYiIGQ9Ik0xNS44NDA2IDMuMTUyMzRDMTUuMzY3NiAzLjM4NDIgMTUuMDM0NiAzLjg1Nzc1IDE1LjAwMjUgNC40MTIwMUMxNS4wMDA5IDQuNDQxMTMgMTUgNC40NzA0NiAxNSA0LjVDMTUgNC43MTY4IDE1LjA0NiA0LjkyMjg2IDE1LjEyODggNS4xMDg5NkMxNS4zNjIzIDUuNjMzOTQgMTUuODg4NCA2IDE2LjUgNkMxNy4wMDMyIDYgMTcuNDQ4NSA1Ljc1MjI1IDE3LjcyMDYgNS4zNzIxQzE3Ljg5NjUgNS4xMjYzNSAxOCA0LjgyNTI3IDE4IDQuNUMxOCAzLjY3MTU3IDE3LjMyODQgMyAxNi41IDNDMTYuMjYzNCAzIDE2LjAzOTYgMy4wNTQ3OCAxNS44NDA2IDMuMTUyMzRaIi8+JiN4YTs8L3N2Zz4=;fontFamily=VK Sans Display;fontColor=#252629;" parent="1" vertex="1">
          <mxGeometry x="490" y="146.5" width="50" height="50" as="geometry" />
        </mxCell>
        <mxCell id="SDXgaqtE79yuUAepAjOi-19" value="Продвинутый&#xa;маршрутизатор&#xa;212.233.88.21" style="shape=image;verticalLabelPosition=bottom;labelBackgroundColor=none;verticalAlign=top;aspect=fixed;imageAspect=0;editableCssRules=.*;image=data:image/svg+xml,PHN2ZyB4bWxucz0iaHR0cDovL3d3dy53My5vcmcvMjAwMC9zdmciIGZpbGw9Im5vbmUiIHZpZXdCb3g9IjEuMjUgMS4yNSAxNy41IDE3LjUiIGhlaWdodD0iMTcuNSIgd2lkdGg9IjE3LjUiPiYjeGE7PHBhdGggc3Ryb2tlLWxpbmVqb2luPSJyb3VuZCIgc3Ryb2tlLWxpbmVjYXA9InJvdW5kIiBzdHJva2Utd2lkdGg9IjEuNSIgc3Ryb2tlPSIjMDA3N0ZGIiBkPSJNMi4wMDM5MSAxOEg3LjAwMzkxTTIuMDAzOTEgMThMMi4wMDM5MSAxM00yLjAwMzkxIDE4TDcuMDAzOTEgMTNNMTMgMTNWMThNMTMgMTNMMTggMTNNMTMgMTNMMTggMThNMTggMkwxMyAyTTE4IDJWN00xOCAyTDEzIDdNNyA3TDIgN003IDdMNyAyTTcgN0wyIDIiLz4mI3hhOzwvc3ZnPg==;fontFamily=VK Sans Display;fontColor=#252629;" parent="1" vertex="1">
          <mxGeometry x="620" y="146.5" width="50" height="50" as="geometry" />
        </mxCell>
        <mxCell id="SDXgaqtE79yuUAepAjOi-18" value="Подсеть&#xa;10.10.2.0/24" style="shape=image;verticalLabelPosition=bottom;labelBackgroundColor=none;verticalAlign=top;aspect=fixed;imageAspect=0;editableCssRules=.*;image=data:image/svg+xml,PHN2ZyB4bWxucz0iaHR0cDovL3d3dy53My5vcmcvMjAwMC9zdmciIGZpbGw9Im5vbmUiIHZpZXdCb3g9IjEgMSAxOCAxOCIgaGVpZ2h0PSIxOCIgd2lkdGg9IjE4Ij4mI3hhOzxwYXRoIGZpbGw9IiMwMDc3RkYiIGQ9Ik0xMCAxQzguMDA5MjggMSA2LjE2OTUyIDEuNjQ2MzMgNC42NzkxMSAyLjc0MDU5QzUuMTcwNyAyLjk1MDkyIDUuNTk0NzMgMy4yODg3OCA1LjkwOTYxIDMuNzEyNTdDNi4wNjg4IDMuNjA4NzkgNi4yMzIxNyAzLjUxMDkgNi4zOTk0MiAzLjQxOTJDNi41NDM3NiA0LjMzNjM5IDYuNzg5ODUgNS4yMTk3NiA3LjEyNTc2IDYuMDU3MzlDNi45MDQ3IDYuMDIxMDMgNi42ODU3IDUuOTc5NyA2LjQ2ODkgNS45MzM1NEM2LjM5MzA2IDYuNDU3NDggNi4xODE4MSA2LjkzNzYgNS44NzE3OSA3LjMzNzI1QzYuNTM2MDQgNy40OTE2NyA3LjIxODkzIDcuNjA0NjQgNy45MTY2NSA3LjY3Mjk3QzguNjY3NDEgOC45NTczOSA5LjY0NTI4IDEwLjA5MjggMTAuNzk1MiAxMS4wMjQyQzkuOTY4MDkgMTEuNTY1MyA5LjA3MTE5IDExLjk5NzQgOC4xMjg0MyAxMi4zMDY1QzYuODk2NzggMTEuMTAxNyA1LjgzNzQ0IDkuNjgzNTEgNS4wMDk5NSA4LjA5Mjg3QzQuNTc1NjIgOC4zNDYzNSA0LjA3MTg1IDguNDkzODIgMy41MzQxMSA4LjQ5OTgxQzQuMzEyNTcgMTAuMDYxOCA1LjI5NTcxIDExLjQ3OTEgNi40Mzg4OCAxMi43MTlDNS4zNTQ4NCAxMi44OTU5IDQuMjMyMzcgMTIuOTE1MiAzLjEwMzAxIDEyLjc1ODZMMy4wODI4NyAxMi45MDM5QzIuNzA3NDcgMTIuMDEwNyAyLjUgMTEuMDI5NiAyLjUgMTBDMi41IDkuNDQ1NTQgMi41NjAxNyA4LjkwNTEzIDIuNjc0MzMgOC4zODQ5NEMyLjE1NTQgOC4yMzY3IDEuNjkzOTQgNy45NTIyMyAxLjMzMTEzIDcuNTcyNjhDMS4xMTUzNiA4LjM0NDg3IDEgOS4xNTg5NiAxIDEwQzEgMTQuOTcwNiA1LjAyOTQ0IDE5IDEwIDE5QzEwLjcxMjYgMTkgMTEuNDA1OSAxOC45MTcyIDEyLjA3MDcgMTguNzYwNkMxMS43NzU2IDE4LjM1NDEgMTEuNTggMTcuODcwNiAxMS41MTk3IDE3LjM0NTlDMTEuMDI5IDE3LjQ0NjkgMTAuNTIwNyAxNy41IDEwIDE3LjVDNy40NzYxNSAxNy41IDUuMjQzNDYgMTYuMjUzNCAzLjg4NDEzIDE0LjM0MjJDNS4xOTY2NSAxNC40MjA4IDYuNDkxMDUgMTQuMjkzNCA3LjcyODIgMTMuOTgyN0M4Ljg4NTYgMTUuMDA3MiAxMC4xNjYgMTUuODcwMSAxMS41MzQyIDE2LjU0NTVDMTEuNjEyNSAxNi4wMzA2IDExLjgyMTYgMTUuNTU4NiAxMi4xMjY3IDE1LjE2NDdDMTEuMTY5NyAxNC42ODYgMTAuMjU4OCAxNC4xMDU2IDkuNDA5MjkgMTMuNDM0MUMxMC4zNjI3IDEzLjA0ODEgMTEuMjY2NSAxMi41NDg0IDEyLjA5OTkgMTEuOTQ3MUMxMy40NDQgMTIuNzcyMyAxNC45NTk2IDEzLjM0NTMgMTYuNTgwOSAxMy42MDA1QzE2LjQyMjMgMTMuODg5NyAxNi4yNDUyIDE0LjE2NzMgMTYuMDUxMyAxNC40MzE3QzE2LjQ5MDIgMTQuNjk3NCAxNi44NTU2IDE1LjA3MjUgMTcuMTA5NiAxNS41MTkxQzE4LjI5NDQgMTMuOTk1MSAxOSAxMi4wNzk5IDE5IDEwQzE5IDguODc1NzYgMTguNzkzOSA3Ljc5OTY2IDE4LjQxNzMgNi44MDc0NEMxOC4wMzI2IDcuMTI3NDUgMTcuNTY2NyA3LjM1MzA3IDE3LjA1NDkgNy40NDg3OEMxNy4zNDMgOC4yNDUxNSAxNy41IDkuMTA0MjQgMTcuNSAxMEMxNy41IDEwLjc1NDUgMTcuMzg4NiAxMS40ODMxIDE3LjE4MTMgMTIuMTdDMTUuODAyMSAxMi4wMDE0IDE0LjUwMzYgMTEuNTcxNSAxMy4zMzY3IDEwLjkzMTNDMTQuMzkyMSA5Ljk0NzQ5IDE1LjI4ODYgOC43NzcxNiAxNS45NjkyIDcuNDUzMThDMTQuOTQ0MyA3LjI3MDIgMTQuMDk5OCA2LjU2NjgzIDEzLjcxODUgNS42MjYxNUMxMi4zOTk3IDYuMDI5ODcgMTAuOTgwMyA2LjI1MDAyIDkuNDk5OTUgNi4yNTAwMkM5LjI4MDc0IDYuMjUwMDIgOS4wNjI4NyA2LjI0NTIgOC44NDY0NSA2LjIzNTY2QzguMzI4NjUgNS4xODIxOSA3Ljk3ODIzIDQuMDMxNjUgNy44Mjk5MSAyLjgxODc1QzguNTE2ODcgMi42MTE0MyA5LjI0NTQyIDIuNSAxMCAyLjVDMTEuMzM4NiAyLjUgMTIuNTk1MyAyLjg1MDY5IDEzLjY4MzIgMy40NjUyMUMxMy44NjA3IDIuOTgyMzIgMTQuMTU4OCAyLjU1NzcxIDE0LjU0MSAyLjIyNzg5QzEzLjIwOCAxLjQ0NzM4IDExLjY1NjIgMSAxMCAxWk0xNC41NDYzIDYuOTM1ODFDMTMuMDUgNy40Mzc2NCAxMS40MzUxIDcuNzIyMzEgOS43NTEwOCA3Ljc0ODFDMTAuMzg4NCA4LjYzODkzIDExLjE1ODUgOS40MjgzOSAxMi4wMzIzIDEwLjA4NzZDMTMuMDM4OCA5LjIxMDQyIDEzLjg5NjMgOC4xNDg2IDE0LjU0NjMgNi45MzU4MVoiIGNsaXAtcnVsZT0iZXZlbm9kZCIgZmlsbC1ydWxlPSJldmVub2RkIi8+JiN4YTs8cGF0aCBmaWxsPSIjMDA3N0ZGIiBkPSJNMi4wMzIyNyA1LjgxMDk2QzIuMDExMTIgNS43MTA2MyAyIDUuNjA2NjIgMiA1LjVDMiA1LjI1NDc3IDIuMDU4ODUgNS4wMjMyOSAyLjE2MzE5IDQuODE4OUMyLjQxMTM0IDQuMzMyODMgMi45MTY4IDQgMy41IDRDNC4wMTQ4MiA0IDQuNDY5MDYgNC4yNTkzNSA0LjczOTIgNC42NTQ1M0M0LjkwMzc2IDQuODk1MjYgNSA1LjE4NjM5IDUgNS41QzUgNS41MTIyMyA0Ljk5OTg1IDUuNTI0NDMgNC45OTk1NiA1LjUzNjU5QzQuOTgwMTMgNi4zNDgxMSA0LjMxNjIgNyAzLjUgN0MyLjc3ODE5IDcgMi4xNzU0NiA2LjQ5MDE2IDIuMDMyMjcgNS44MTA5NloiLz4mI3hhOzxwYXRoIGZpbGw9IiMwMDc3RkYiIGQ9Ik0xNS45NzU4IDE2LjcyOTlDMTUuOTkxNyAxNi44MTc1IDE2IDE2LjkwNzggMTYgMTdDMTYgMTcuODI4NCAxNS4zMjg0IDE4LjUgMTQuNSAxOC41QzE0LjE4MTcgMTguNSAxMy44ODY2IDE4LjQwMDkgMTMuNjQzOSAxOC4yMzE4QzEzLjI1NDcgMTcuOTYwOCAxMyAxNy41MTAyIDEzIDE3QzEzIDE2LjUxMjIgMTMuMjMyOSAxNi4wNzg3IDEzLjU5MzYgMTUuODA0OEMxMy44NDU0IDE1LjYxMzUgMTQuMTU5NCAxNS41IDE0LjUgMTUuNUMxNC42NzY4IDE1LjUgMTQuODQ2NCAxNS41MzA2IDE1LjAwMzkgMTUuNTg2OEMxNS41MDIzIDE1Ljc2NDUgMTUuODc5MSAxNi4xOTg0IDE1Ljk3NTggMTYuNzI5OVoiLz4mI3hhOzxwYXRoIGZpbGw9IiMwMDc3RkYiIGQ9Ik0xNS44NDA2IDMuMTUyMzRDMTUuMzY3NiAzLjM4NDIgMTUuMDM0NiAzLjg1Nzc1IDE1LjAwMjUgNC40MTIwMUMxNS4wMDA5IDQuNDQxMTMgMTUgNC40NzA0NiAxNSA0LjVDMTUgNC43MTY4IDE1LjA0NiA0LjkyMjg2IDE1LjEyODggNS4xMDg5NkMxNS4zNjIzIDUuNjMzOTQgMTUuODg4NCA2IDE2LjUgNkMxNy4wMDMyIDYgMTcuNDQ4NSA1Ljc1MjI1IDE3LjcyMDYgNS4zNzIxQzE3Ljg5NjUgNS4xMjYzNSAxOCA0LjgyNTI3IDE4IDQuNUMxOCAzLjY3MTU3IDE3LjMyODQgMyAxNi41IDNDMTYuMjYzNCAzIDE2LjAzOTYgMy4wNTQ3OCAxNS44NDA2IDMuMTUyMzRaIi8+JiN4YTs8L3N2Zz4=;fontFamily=VK Sans Display;fontColor=#252629;" parent="1" vertex="1">
          <mxGeometry x="750" y="146.5" width="50" height="50" as="geometry" />
        </mxCell>
      </root>
    </mxGraphModel>
  </diagram>
</mxfile>
